<?xml version="1.0" encoding="UTF-8"?>
<svg data-bbox="474.568 498.372 237.6 52.848" height="120.96" width="263pt" viewBox="457 478.5 263 90.72" style="isolation:isolate" xmlns="http://www.w3.org/2000/svg" data-type="color">
    <g>
        <defs>
            <clipPath id="b3fc265c-3998-4013-adfe-faac51489edf">
                <path d="M720 478.5v90.72H457V478.5h263z"/>
            </clipPath>
        </defs>
        <switch>
            <g clip-path="url(#b3fc265c-3998-4013-adfe-faac51489edf)">
                <path fill="#000000" d="M491.2 551.22q-4.752 0-8.496-2.34-3.744-2.34-5.94-6.372t-2.196-9.072q0-5.04 2.196-9.072 2.196-4.032 5.94-6.408 3.744-2.376 8.496-2.376 3.816 0 6.912 1.62t5.004 4.464q1.908 2.844 2.124 6.588v10.296q-.216 3.672-2.088 6.552-1.872 2.88-4.968 4.5t-6.984 1.62Zm1.08-6.12q3.24 0 5.652-1.512t3.78-4.14q1.368-2.628 1.368-6.012 0-3.528-1.404-6.12t-3.816-4.104q-2.412-1.512-5.652-1.512t-5.688 1.512q-2.448 1.512-3.852 4.14-1.404 2.628-1.404 6.012 0 3.456 1.404 6.084 1.404 2.628 3.888 4.14 2.484 1.512 5.724 1.512Zm16.92-46.008V550.5h-6.552v-9.216l1.224-8.352-1.224-8.28v-25.56h6.552Zm15.912 51.408h-6.48v-34.2h6.48v34.2Zm23.112 0h-6.48v-20.664q0-3.816-2.34-6.012-2.34-2.196-5.868-2.196-2.376 0-4.248 1.008-1.872 1.008-3.024 2.808-1.152 1.8-1.152 4.32l-2.664-1.296q0-3.888 1.692-6.768t4.644-4.5q2.952-1.62 6.624-1.62 3.6 0 6.516 1.584t4.608 4.464q1.692 2.88 1.692 6.84V550.5Zm23.184 0h-6.552v-20.664q0-3.816-2.34-6.012-2.34-2.196-5.796-2.196-2.376 0-4.284 1.008t-3.06 2.808q-1.152 1.8-1.152 4.32l-3.672-1.296q.216-3.96 2.124-6.804 1.908-2.844 4.932-4.464 3.024-1.62 6.624-1.62 3.744 0 6.696 1.584 2.952 1.584 4.716 4.464 1.764 2.88 1.764 6.912v21.96Zm19.656.72q-2.88 0-5.436-.756t-4.716-2.16q-2.16-1.404-3.744-3.348l4.176-4.176q1.872 2.304 4.32 3.42 2.448 1.116 5.472 1.116 3.024 0 4.68-1.044 1.656-1.044 1.656-2.916 0-1.872-1.332-2.916-1.332-1.044-3.42-1.728-2.088-.684-4.428-1.368t-4.428-1.764q-2.088-1.08-3.42-2.952-1.332-1.872-1.332-4.968t1.512-5.364q1.512-2.268 4.212-3.492 2.7-1.224 6.516-1.224 4.032 0 7.164 1.404 3.132 1.404 5.148 4.212l-4.176 4.176q-1.44-1.872-3.564-2.88-2.124-1.008-4.788-1.008-2.808 0-4.284.972t-1.476 2.7q0 1.728 1.296 2.664 1.296.936 3.42 1.584 2.124.648 4.428 1.332t4.392 1.836q2.088 1.152 3.42 3.096 1.332 1.944 1.332 5.112 0 4.824-3.42 7.632t-9.18 2.808Zm35.496 0q-5.04 0-9.072-2.376-4.032-2.376-6.408-6.444-2.376-4.068-2.376-9.108 0-4.968 2.376-8.964 2.376-3.996 6.408-6.372t9.072-2.376q4.968 0 9.036 2.34t6.444 6.372q2.376 4.032 2.376 9 0 5.04-2.376 9.108-2.376 4.068-6.444 6.444-4.068 2.376-9.036 2.376Zm0-6.264q3.24 0 5.76-1.512 2.52-1.512 3.96-4.14 1.44-2.628 1.44-6.012 0-3.312-1.476-5.904t-3.96-4.068q-2.484-1.476-5.724-1.476t-5.76 1.476q-2.52 1.476-3.96 4.068-1.44 2.592-1.44 5.904 0 3.384 1.44 6.012 1.44 2.628 3.96 4.14 2.52 1.512 5.76 1.512Zm35.424 5.544h-6.48v-39.312q0-3.816 1.656-6.66 1.656-2.844 4.572-4.5 2.916-1.656 6.804-1.656 2.952 0 5.112 1.008t3.96 2.952l-4.248 4.176q-.936-1.008-2.088-1.548-1.152-.54-2.808-.54-3.096 0-4.788 1.8-1.692 1.8-1.692 4.968V550.5Zm10.872-28.296H647.08V516.3h25.776v5.904Zm16.2 28.296h-6.48v-48.528h6.48V550.5Zm8.424-28.296h-23.328V516.3h23.328v5.904Z" data-color="1"/>
                <path fill="#23009F" d="M707.488 551.22q-2.016 0-3.348-1.404-1.332-1.404-1.332-3.348 0-2.016 1.332-3.348 1.332-1.332 3.348-1.332t3.348 1.332q1.332 1.332 1.332 3.348 0 1.944-1.332 3.348t-3.348 1.404Z" data-color="2"/>
            </g>
        </switch>
    </g>
</svg>
